<svg id="Grupo_177" data-name="Grupo 177" xmlns="http://www.w3.org/2000/svg" xmlns:xlink="http://www.w3.org/1999/xlink" width="133.126" height="78.277" viewBox="0 0 133.126 78.277">
  <defs>
    <clipPath id="clip-path">
      <rect id="Rectángulo_77" data-name="Rectángulo 77" width="133.126" height="78.277" fill="#fff"/>
    </clipPath>
  </defs>
  <g id="Grupo_72" data-name="Grupo 72" clip-path="url(#clip-path)">
    <path id="Trazado_39" data-name="Trazado 39" d="M288.6,353.584a6.965,6.965,0,0,1,2.684.476,7.054,7.054,0,0,1,2.318,1.7l4.159-2.288a10.1,10.1,0,0,0-3.861-3.358,11.746,11.746,0,0,0-5.326-1.181,12.046,12.046,0,0,0-5.793,1.391,10.391,10.391,0,0,0-2.507,16.435q2.974,3.112,8.227,3.111a10.741,10.741,0,0,0,9.041-4.165l-3.94-2.7a6.367,6.367,0,0,1-5.222,2.287A6.043,6.043,0,0,1,284,363.689a5.506,5.506,0,0,1-1.667-4.148,5.7,5.7,0,0,1,1.731-4.285,6.254,6.254,0,0,1,4.535-1.672" transform="translate(-231.732 -291.595)" fill="#fff"/>
    <path id="Trazado_40" data-name="Trazado 40" d="M439.257,351.644a9.19,9.19,0,0,0-2.907-2.032,8.418,8.418,0,0,0-3.363-.677,8.678,8.678,0,0,0-6.617,2.946,10.7,10.7,0,0,0-2.724,7.559,10.439,10.439,0,0,0,2.815,7.44,8.863,8.863,0,0,0,6.673,2.992,8.219,8.219,0,0,0,3.19-.613,9.8,9.8,0,0,0,2.934-2v2.1h5V349.447h-5Zm-1.331,12.015a5.147,5.147,0,0,1-3.9,1.638,5.053,5.053,0,0,1-3.84-1.665,5.964,5.964,0,0,1-1.56-4.246,5.9,5.9,0,0,1,1.532-4.2A5.048,5.048,0,0,1,434,353.547a5.213,5.213,0,0,1,3.922,1.611,5.817,5.817,0,0,1,1.551,4.209,5.988,5.988,0,0,1-1.551,4.292" transform="translate(-354.029 -291.595)" fill="#fff"/>
    <path id="Trazado_41" data-name="Trazado 41" d="M579.292,357.28l-1.83-.915a5.622,5.622,0,0,1-1.492-.924,1.091,1.091,0,0,1-.3-.741,1.072,1.072,0,0,1,.476-.888,2.156,2.156,0,0,1,1.318-.357,5.232,5.232,0,0,1,3.422,1.867l3.093-3.093a8.081,8.081,0,0,0-6.552-3.294,6.612,6.612,0,0,0-4.658,1.675,5.288,5.288,0,0,0-1.821,4.036q0,3.661,4.832,6.094l1.684.842q2.177,1.1,2.177,2.251a1.38,1.38,0,0,1-.6,1.1,2.5,2.5,0,0,1-1.592.476,4.555,4.555,0,0,1-2.1-.632,7.1,7.1,0,0,1-2.059-1.656l-3.075,3.349a8.3,8.3,0,0,0,6.955,3.4,7.462,7.462,0,0,0,5.225-1.775,6.061,6.061,0,0,0,.869-7.906,10.788,10.788,0,0,0-3.971-2.91" transform="translate(-476.511 -291.594)" fill="#fff"/>
    <path id="Trazado_42" data-name="Trazado 42" d="M696.156,314.5a6.762,6.762,0,0,0-5-2.05,7.594,7.594,0,0,0-3,.631,11.388,11.388,0,0,0-2.947,1.894v-9.7h-4.96v27.6h4.96v-8a22.752,22.752,0,0,1,.219-4.1,5.336,5.336,0,0,1,1.51-2.745,3.709,3.709,0,0,1,2.608-1.007,3.161,3.161,0,0,1,1.968.6,3.267,3.267,0,0,1,1.125,1.83,21.522,21.522,0,0,1,.33,4.685v8.73h4.923V319.716a7.163,7.163,0,0,0-1.739-5.216" transform="translate(-568.466 -255.11)" fill="#fff"/>
    <path id="Trazado_43" data-name="Trazado 43" d="M373.906,261.285a.6.6,0,0,1,.279-.312,1.055,1.055,0,0,1,.558-.135,2.847,2.847,0,0,1,1.084.271v-1.125a4.867,4.867,0,0,0-1.338-.23,1.973,1.973,0,0,0-1.023.251,1.408,1.408,0,0,0-.6.661,3.785,3.785,0,0,0-.177,1.372v1.4h-1.174v.994h1.174v7.942h1.15l.006-7.942h1.866v-.994h-1.865v-1.207a4.3,4.3,0,0,1,.058-.941" transform="translate(-310.465 -217.068)" fill="#fff"/>
    <path id="Trazado_44" data-name="Trazado 44" d="M412.871,288.74a4.8,4.8,0,0,0,.07-6.5,4.667,4.667,0,0,0-6.854.008,4.788,4.788,0,0,0,.07,6.492,4.724,4.724,0,0,0,6.714,0m-5.112-.148a3.327,3.327,0,0,1-1.269-1.293,3.634,3.634,0,0,1-.47-1.807,3.541,3.541,0,0,1,1.03-2.562,3.391,3.391,0,0,1,4.925,0,3.533,3.533,0,0,1,1.034,2.562,3.637,3.637,0,0,1-.47,1.807,3.331,3.331,0,0,1-1.27,1.293,3.608,3.608,0,0,1-3.511,0" transform="translate(-338.324 -234.61)" fill="#fff"/>
    <path id="Trazado_45" data-name="Trazado 45" d="M474.159,281.127a4.12,4.12,0,0,0-1.109,1.154v-1.306h-1.174v8.936h1.174v-3.023a14.036,14.036,0,0,1,.214-3.088,2.984,2.984,0,0,1,.813-1.466,1.662,1.662,0,0,1,1.109-.472,1.6,1.6,0,0,1,.608.156l.6-.969a2.1,2.1,0,0,0-1.018-.3,2.184,2.184,0,0,0-1.215.382" transform="translate(-394.332 -234.61)" fill="#fff"/>
    <path id="Trazado_46" data-name="Trazado 46" d="M323.881,68.743c0,.054-10.9,8.755-11.871,6.929-.591-1.074,1.182-4.136,4.458-9.454.108,0,.215-.107.215-.322v-.054c1.074-1.719,2.2-3.491,3.33-5.21h16.06c.376,0,.43-.43.107-.967a1.808,1.808,0,0,0-1.235-.913h-13.7c4.19-6.284,8.111-11.709,8.111-11.763.161-.215-.054-.806-.483-1.235-.43-.483-.967-.591-1.128-.376-.054.054-4.565,6.338-9.078,13.375H300.515c-.376,0-.43.43-.107.913a1.749,1.749,0,0,0,1.235.967s13.751-.537,13.643,3.545c0,0-.376.591-.322.591-1.265,2.1-2.4,4.117-3.286,5.911a19.021,19.021,0,0,1-4.825,3.543c-4.029,1.934,0-3.76.7-4.619a1.919,1.919,0,0,0,.376-.376c.215-.215,0-.806-.43-1.235-.43-.483-.967-.645-1.182-.43l-.161.215c-2.9,4.888-7.037,7.52-7.681,6.983-.376-.322-.054-3.545,4.029-8.218.161-.269,0-.806-.43-1.289-.43-.43-.967-.644-1.182-.43a24.473,24.473,0,0,0-4.136,5.962c-.113.25-.211.489-.3.722-3.427,3.308-10.807,8.984-13.287,10.29-.537.268-2.847,1.128-3.33.43-.752-1.611,2.041-7.789,5.962-14.61.107.054.161,0,.215,0,.054-.054,14.4-10.958,17.833-17.833.967-1.826,1.182-3.115.967-3.921a2.566,2.566,0,0,0-1.826-1.719,2.688,2.688,0,0,0-1.719,0,11.863,11.863,0,0,0-5.64,4.619c-.483.107-21.163,29.6-17.994,34.054,1.343,2.149,4.566,1.182,6.5.161,2.121-1.061,7.827-5.457,11.677-8.884-.181,3.365,3.432,3.169,7.66-.462.322,2.31,2.686,2.739,4.566,1.826a9.558,9.558,0,0,0,2.243-1.577c-.545,1.512-.731,2.656-.417,3.242,2.632,4.834,14.825-7.2,14.879-7.251a.534.534,0,0,0,.108-.913c-.43-.483-.752-.376-.967-.215m-13.106-8.379,6.714.269-1.611,2.578c-.859-1.128-3.491-2.2-5.1-2.847M297.131,49.89a12.012,12.012,0,0,1,5.425-4.512,4.463,4.463,0,0,1,.7-.107c.161.7-.107,1.826-.913,3.438-2.31,4.566-9.453,10.9-13.911,14.61,4.351-7.09,8.7-13.428,8.7-13.428" transform="translate(-231.734 -36.77)" fill="#fff"/>
    <path id="Trazado_47" data-name="Trazado 47" d="M55.9,21.331a9.418,9.418,0,0,0-5.05-2.289,25.363,25.363,0,0,0-9.567.557,70.069,70.069,0,0,0-29.66,14.277,13.124,13.124,0,0,0-3.469,3.9c-1.292,2.412-.213,4.563,2.488,5.032a25.575,25.575,0,0,0,3.45.33c4.033.147,8.082-.008,12.091.6A25.008,25.008,0,0,1,36.356,47.3a10.728,10.728,0,0,1,4.808,6.073h0s.045.1.1.28c.419,2.093-.025,4.86-3.217,7.823-.131.121-.263.241-.4.359A62.422,62.422,0,0,1,17.294,73.761,35,35,0,0,1,7.489,76.1a8.155,8.155,0,0,1-4.669-.853,2.5,2.5,0,0,1-1.3-3.142,8.449,8.449,0,0,1,.549-1.481,23.359,23.359,0,0,1,5.252-6.846q.909-.842,1.811-1.691a.374.374,0,0,0,.108-.5c-.146-.226-.326-.058-.483.008a1.687,1.687,0,0,0-.288.184,23.98,23.98,0,0,0-5.25,4.836A14.231,14.231,0,0,0,.207,71.751,4.457,4.457,0,0,0,1.714,76.7,8.407,8.407,0,0,0,6.34,78.463a22.642,22.642,0,0,0,8.494-1.022A62.548,62.548,0,0,0,40.477,63.09c.076-.07.15-.141.225-.211a9.567,9.567,0,0,0,1.956-2.233,8.541,8.541,0,0,0,.7-1.221,4.313,4.313,0,0,0,.3-.9,9.348,9.348,0,0,0,.442-2.336,12.784,12.784,0,0,0-.32-3.8,11.715,11.715,0,0,0-1.083-2.809l-.006-.011a13.337,13.337,0,0,0-1.636-2.413.993.993,0,0,1-.157-.142,19.682,19.682,0,0,0-9.589-5.592,40.279,40.279,0,0,0-11.293-1.375,73.7,73.7,0,0,1-8.4-.3c-.28-.032-.642,0-.756-.281-.133-.324.187-.563.384-.787a24.237,24.237,0,0,1,3.441-3.2A69.922,69.922,0,0,1,38.274,23.544,39.2,39.2,0,0,1,49.4,21.6a9.135,9.135,0,0,1,5.161,1.276,2.805,2.805,0,0,1,1.24,3.6,9.477,9.477,0,0,1-.716,1.618,26.168,26.168,0,0,1-6.344,7.292q-1.074.879-2.141,1.766a.419.419,0,0,0-.154.546c.148.263.361.087.54.025a1.907,1.907,0,0,0,.335-.186,26.87,26.87,0,0,0,6.2-5.045,15.943,15.943,0,0,0,3.717-5.526A4.992,4.992,0,0,0,55.9,21.331" transform="translate(0 -15.707)" fill="#fff"/>
    <path id="Trazado_48" data-name="Trazado 48" d="M645.717,79.831c-.112,1.686.759,8.714,1.658,10.709a7.56,7.56,0,0,0,3.064,3.12,7.068,7.068,0,0,1-2.754-4.1c-.394-2.473-1.968-9.725-1.968-9.725" transform="translate(-539.599 -66.712)" fill="#fff" fill-rule="evenodd"/>
    <path id="Trazado_49" data-name="Trazado 49" d="M755.936,91.129c2.642,9.782,6.915,11.693,8.32,18.776a31.357,31.357,0,0,1-.169,12.93c1.574-14.391-3.614-18.669-5.326-21.822-2.009-3.7-2.825-9.884-2.825-9.884" transform="translate(-631.714 -76.154)" fill="#fff" fill-rule="evenodd"/>
    <path id="Trazado_50" data-name="Trazado 50" d="M673.558,210.782a9.37,9.37,0,0,0,2.755,7.055c-2.417,2.389-6.409,1.124-6.409,1.124a6.717,6.717,0,0,0,7.589-.928,9.3,9.3,0,0,0,5,.562c-7.814-.112-8.938-7.814-8.938-7.814" transform="translate(-559.819 -176.144)" fill="#fff" fill-rule="evenodd"/>
    <path id="Trazado_51" data-name="Trazado 51" d="M726.343,265.253s3.992,4.891,4.272,10.625a24.943,24.943,0,0,0-2.249-5.818,18.887,18.887,0,0,1-1.49,4.863,13.2,13.2,0,0,0,.731-5.369c-.394-2.193-.647-1.124-1.265-4.3" transform="translate(-606.984 -221.664)" fill="#fff" fill-rule="evenodd"/>
    <path id="Trazado_52" data-name="Trazado 52" d="M653.22,191.87c-4.1,6.577-.281,11.019-.281,11.019a28.406,28.406,0,0,0-.169,4.1,59.77,59.77,0,0,0,.618,6.128c-.281-2.024.281-10.569.281-10.569-3.542-4.891-.45-10.681-.45-10.681" transform="translate(-544.289 -160.34)" fill="#fff" fill-rule="evenodd"/>
    <path id="Trazado_53" data-name="Trazado 53" d="M673.483,3.261a4.228,4.228,0,0,1,3.443-1.722A3.987,3.987,0,0,1,675.76,0a7.622,7.622,0,0,0,2,1.546c1.968.394,3.317,1.293,6.774,3.767a48.372,48.372,0,0,0,6.83,4.048c-3.991-.562-10.512-6.577-13.267-7.139a5.678,5.678,0,0,0-4.61,1.04" transform="translate(-562.81)" fill="#fff" fill-rule="evenodd"/>
    <path id="Trazado_54" data-name="Trazado 54" d="M698.811,38.17c4.947.647,10.032,3.95,14,3.613s3.882-2.517,3.011-4.569a21.589,21.589,0,0,0-3.261-4.666s4.3,5.509,2.951,7.477-8.7-.265-11.37-1.277a11.518,11.518,0,0,0-5.327-.578" transform="translate(-583.976 -27.199)" fill="#fff" fill-rule="evenodd"/>
    <path id="Trazado_55" data-name="Trazado 55" d="M649.007,25.1s-1.04-4.132-2.5-4.919c0,0-.619,2.952.478,4.469,0,0-1.265-1.265-1.04-5.2-2.048-2.812-6.2-5.791-6.609-9.385-.527-4.592,3.283-5.866,2.432-9.418a4.16,4.16,0,0,1,.225,3.233c-1.028,2.016-2.4,3.276-1.827,5.931,1.142,5.291,8.466,8.008,8.842,15.289" transform="translate(-534.231 -0.541)" fill="#fff" fill-rule="evenodd"/>
    <path id="Trazado_56" data-name="Trazado 56" d="M658.452,25.265a7.4,7.4,0,0,0,.168,5.172,18.425,18.425,0,0,0,3.907,5.509S658.733,32.63,658,29.79s-.337-3.6.45-4.525" transform="translate(-549.551 -21.113)" fill="#fff" fill-rule="evenodd"/>
    <path id="Trazado_57" data-name="Trazado 57" d="M670.086,148.955a6.411,6.411,0,0,0-3.85,2.932,3.844,3.844,0,0,1,3.552-.291,15.382,15.382,0,0,0,.411,3.1c.159-5.943,6.37-10.124,12.112-9.32l-.2-.534c-3.619.031-10.654.2-12.029,4.111" transform="translate(-556.754 -121.042)" fill="#fff" fill-rule="evenodd"/>
  </g>
</svg>
