<?xml version="1.0" encoding="utf-8"?>
<!-- Generator: Adobe Illustrator 27.1.1, SVG Export Plug-In . SVG Version: 6.00 Build 0)  -->
<svg version="1.1" id="Capa_1" xmlns="http://www.w3.org/2000/svg" xmlns:xlink="http://www.w3.org/1999/xlink" x="0px" y="0px"
	 viewBox="0 0 990 662" style="enable-background:new 0 0 990 662;" xml:space="preserve">
<style type="text/css">
	.st0{fill:url(#SVGID_1_);}
	.st1{fill:url(#SVGID_00000171699223122071482630000003060539954736743556_);}
	.st2{fill:url(#SVGID_00000141419453168979191280000005419449245189565883_);}
	.st3{fill:url(#SVGID_00000029013618546195297400000018057795358598300572_);}
	.st4{fill:url(#SVGID_00000101096304602494692000000010447205355992007831_);}
	.st5{fill:url(#SVGID_00000168085247382977081810000013163296735591083655_);}
	.st6{fill:url(#SVGID_00000039843303716927327010000011815727188701500602_);}
	.st7{fill:url(#SVGID_00000008837603325795053870000012323545452528181942_);}
	.st8{fill:url(#SVGID_00000101810902829112676420000002973785796990975678_);}
	.st9{fill:url(#SVGID_00000099654693968837163230000004645880196523765162_);}
	.st10{fill-rule:evenodd;clip-rule:evenodd;fill:url(#SVGID_00000162327584475129551220000017122443398822534829_);}
	.st11{fill-rule:evenodd;clip-rule:evenodd;fill:url(#SVGID_00000178902791922572072250000011851936159061211039_);}
	.st12{fill-rule:evenodd;clip-rule:evenodd;fill:url(#SVGID_00000077305048746089773630000013384499473985638296_);}
	.st13{fill-rule:evenodd;clip-rule:evenodd;fill:url(#SVGID_00000158726091332121639330000016291031651322400134_);}
	.st14{fill-rule:evenodd;clip-rule:evenodd;fill:url(#SVGID_00000152946508806723312690000012451519800384035759_);}
	.st15{fill-rule:evenodd;clip-rule:evenodd;fill:url(#SVGID_00000003081453992472971280000014522579758525236630_);}
	.st16{fill-rule:evenodd;clip-rule:evenodd;fill:url(#SVGID_00000113337677364367909780000017698261681244920207_);}
	.st17{fill-rule:evenodd;clip-rule:evenodd;fill:url(#SVGID_00000114061695158823153640000006323946909145479077_);}
	.st18{fill-rule:evenodd;clip-rule:evenodd;fill:url(#SVGID_00000042698168983528156740000017696157410990483092_);}
	.st19{fill-rule:evenodd;clip-rule:evenodd;fill:url(#SVGID_00000142865980510360224850000008221382244893515906_);}
</style>
<g>
	<g>
		<linearGradient id="SVGID_1_" gradientUnits="userSpaceOnUse" x1="402.0948" y1="562.5865" x2="467.9023" y2="448.6047">
			<stop  offset="5.327789e-09" style="stop-color:#FF0000"/>
			<stop  offset="1" style="stop-color:#120007"/>
		</linearGradient>
		<path class="st0" d="M436,470.05c6.24,0,11.69,0.97,16.34,2.9c4.65,1.93,9.35,5.38,14.11,10.36l25.31-13.92
			c-6.09-8.83-13.92-15.65-23.5-20.44c-9.58-4.79-20.38-7.18-32.41-7.18c-12.99,0-24.74,2.82-35.25,8.46
			c-10.51,5.64-18.69,13.4-24.56,23.28c-5.87,9.88-8.8,20.68-8.8,32.41c0,16.93,6.03,31.71,18.1,44.33
			c12.07,12.62,28.75,18.93,50.06,18.93c23.68,0,42.02-8.45,55.02-25.35l-23.98-16.42c-7.58,9.28-18.17,13.92-31.78,13.92
			c-11,0-19.89-3.26-26.65-9.78c-6.77-6.52-10.15-14.94-10.15-25.24c0-10.6,3.51-19.29,10.54-26.08
			C415.43,473.44,424.63,470.05,436,470.05z"/>
		
			<linearGradient id="SVGID_00000040564184554407528010000010175120507082777512_" gradientUnits="userSpaceOnUse" x1="552.6015" y1="566.7622" x2="626.9757" y2="437.9423">
			<stop  offset="5.327789e-09" style="stop-color:#FF0000"/>
			<stop  offset="1" style="stop-color:#120007"/>
		</linearGradient>
		<path style="fill:url(#SVGID_00000040564184554407528010000010175120507082777512_);" d="M608.59,458.25
			c-5.42-5.49-11.31-9.61-17.69-12.36c-6.38-2.75-13.2-4.12-20.47-4.12c-15.8,0-29.22,5.98-40.27,17.93
			c-11.05,11.96-16.58,27.29-16.58,46c0,18.04,5.71,33.13,17.13,45.27c11.42,12.14,24.96,18.21,40.6,18.21
			c6.97,0,13.44-1.24,19.41-3.73c5.97-2.49,11.92-6.55,17.85-12.2v12.81h30.41V444.88h-30.41V458.25z M600.49,531.36
			c-6.29,6.65-14.21,9.97-23.75,9.97c-9.25,0-17.04-3.38-23.37-10.13c-6.33-6.76-9.49-15.37-9.49-25.84
			c0-10.4,3.11-18.92,9.32-25.56c6.22-6.64,14.02-9.97,23.42-9.97c9.62,0,17.57,3.27,23.86,9.8c6.29,6.54,9.44,15.07,9.44,25.62
			C609.93,516.01,606.78,524.72,600.49,531.36z"/>
		
			<linearGradient id="SVGID_00000168099140789670172900000008910279009220412550_" gradientUnits="userSpaceOnUse" x1="672.9083" y1="560.8128" x2="735.6001" y2="452.2273">
			<stop  offset="5.327789e-09" style="stop-color:#FF0000"/>
			<stop  offset="1" style="stop-color:#120007"/>
		</linearGradient>
		<path style="fill:url(#SVGID_00000168099140789670172900000008910279009220412550_);" d="M715.4,492.55l-11.14-5.57
			c-4.83-2.38-7.85-4.25-9.08-5.62c-1.22-1.37-1.84-2.88-1.84-4.51c0-2.15,0.96-3.95,2.9-5.4c1.93-1.45,4.6-2.17,8.02-2.17
			c6.24,0,13.18,3.79,20.83,11.36l18.82-18.82c-4.83-6.46-10.71-11.42-17.65-14.87c-6.94-3.45-14.35-5.18-22.22-5.18
			c-11.51,0-20.96,3.4-28.34,10.19c-7.39,6.79-11.08,14.98-11.08,24.56c0,14.85,9.8,27.21,29.4,37.09l10.25,5.12
			c8.83,4.46,13.25,9.02,13.25,13.7c0,2.53-1.23,4.75-3.67,6.68c-2.45,1.93-5.68,2.9-9.69,2.9c-3.71,0-7.96-1.28-12.75-3.84
			c-4.79-2.56-8.97-5.92-12.53-10.08l-18.71,20.38c10.54,13.81,24.65,20.71,42.32,20.71c13.29,0,23.89-3.6,31.8-10.8
			c7.91-7.2,11.86-16.19,11.86-26.95c0-8.09-2.19-15.15-6.57-21.16C735.18,504.24,727.13,498.34,715.4,492.55z"/>
		
			<linearGradient id="SVGID_00000103265311864341635870000012353737927940321199_" gradientUnits="userSpaceOnUse" x1="774.0909" y1="568.306" x2="854.3611" y2="429.274">
			<stop  offset="5.327789e-09" style="stop-color:#FF0000"/>
			<stop  offset="1" style="stop-color:#120007"/>
		</linearGradient>
		<path style="fill:url(#SVGID_00000103265311864341635870000012353737927940321199_);" d="M866.98,454.24
			c-8.24-8.31-18.38-12.47-30.41-12.47c-6.16,0-12.25,1.28-18.27,3.84c-6.01,2.56-11.99,6.4-17.93,11.53V398.1h-30.18v167.95h30.18
			v-48.67c0-12.99,0.45-21.31,1.34-24.95c1.71-7.05,4.77-12.62,9.19-16.71c4.42-4.08,9.71-6.13,15.87-6.13
			c4.75,0,8.74,1.22,11.97,3.67c3.23,2.45,5.51,6.16,6.85,11.14c1.34,4.97,2,14.48,2,28.51v53.13h29.96v-80.08
			C877.56,472.02,874.03,461.44,866.98,454.24z"/>
	</g>
	<g>
		
			<linearGradient id="SVGID_00000065772778366050979100000009423092853861704838_" gradientUnits="userSpaceOnUse" x1="456.1859" y1="422.181" x2="493.5945" y2="357.3874">
			<stop  offset="5.327789e-09" style="stop-color:#FF0000"/>
			<stop  offset="1" style="stop-color:#120007"/>
		</linearGradient>
		<path style="fill:url(#SVGID_00000065772778366050979100000009423092853861704838_);" d="M476,361.9c0.23-0.72,0.8-1.35,1.7-1.9
			s2.03-0.82,3.4-0.82c1.83,0,4.03,0.55,6.6,1.65v-6.85c-3.17-0.93-5.88-1.4-8.15-1.4c-2.43,0-4.51,0.51-6.22,1.52
			c-1.72,1.02-2.93,2.36-3.65,4.02c-0.72,1.67-1.08,4.45-1.08,8.35v8.5h-7.15v6.05h7.15v48.33h7l0.04-48.33H487v-6.05h-11.35
			l0.01-7.35C475.65,364.53,475.77,362.62,476,361.9z"/>
		
			<linearGradient id="SVGID_00000019667822725567754800000006396009194985574563_" gradientUnits="userSpaceOnUse" x1="508.7899" y1="427.1164" x2="537.5409" y2="377.3182">
			<stop  offset="5.327789e-09" style="stop-color:#FF0000"/>
			<stop  offset="1" style="stop-color:#120007"/>
		</linearGradient>
		<path style="fill:url(#SVGID_00000019667822725567754800000006396009194985574563_);" d="M543.59,422.23
			c5.29-5.68,7.93-12.32,7.93-19.92c0-7.56-2.5-14.11-7.51-19.64c-5.51-6.06-12.45-9.1-20.83-9.1c-8.41,0-15.37,3.05-20.88,9.15
			c-5.01,5.53-7.51,12.06-7.51,19.59c0,7.6,2.64,14.24,7.94,19.92c5.29,5.68,12.11,8.52,20.45,8.52
			C531.49,430.75,538.29,427.91,543.59,422.23z M512.47,421.33c-3.24-1.85-5.82-4.47-7.72-7.87c-1.91-3.4-2.86-7.06-2.86-11
			c0-6.1,2.09-11.3,6.27-15.59c4.18-4.3,9.18-6.45,15-6.45c5.78,0,10.77,2.15,14.97,6.45c4.2,4.3,6.29,9.5,6.29,15.59
			c0,3.93-0.95,7.6-2.86,11c-1.91,3.4-4.48,6.02-7.73,7.87c-3.24,1.85-6.8,2.77-10.68,2.77S515.72,423.18,512.47,421.33z"/>
		
			<linearGradient id="SVGID_00000156551529932927658510000010127124402152327827_" gradientUnits="userSpaceOnUse" x1="552.7228" y1="424.0999" x2="582.9462" y2="371.7516">
			<stop  offset="5.327789e-09" style="stop-color:#FF0000"/>
			<stop  offset="1" style="stop-color:#120007"/>
		</linearGradient>
		<path style="fill:url(#SVGID_00000156551529932927658510000010127124402152327827_);" d="M575.71,375.9
			c-2.37,1.55-4.62,3.89-6.75,7.02v-7.95h-7.15v54.38h7.15v-18.39c0-9.43,0.43-15.69,1.3-18.79c1.13-4.03,2.78-7,4.95-8.92
			c2.16-1.92,4.41-2.87,6.75-2.87c1,0,2.23,0.32,3.7,0.95l3.65-5.9c-2.2-1.23-4.27-1.85-6.2-1.85
			C580.54,373.57,578.07,374.35,575.71,375.9z"/>
	</g>
	
		<linearGradient id="SVGID_00000129207193189300457030000010321344698271851672_" gradientUnits="userSpaceOnUse" x1="211.3922" y1="458.7499" x2="211.3922" y2="458.7499">
		<stop  offset="5.327789e-09" style="stop-color:#FF0000"/>
		<stop  offset="1" style="stop-color:#120007"/>
	</linearGradient>
	<path style="fill:url(#SVGID_00000129207193189300457030000010321344698271851672_);" d="M211.39,458.75"/>
	<g>
		
			<linearGradient id="SVGID_00000177466745968559283080000017041352136517158317_" gradientUnits="userSpaceOnUse" x1="465.5661" y1="430.8436" x2="642.4083" y2="124.5439">
			<stop  offset="5.327789e-09" style="stop-color:#FF0000"/>
			<stop  offset="1" style="stop-color:#120007"/>
		</linearGradient>
		<path style="fill:url(#SVGID_00000177466745968559283080000017041352136517158317_);" d="M650.68,287.4
			c0,0.33-66.35,53.28-72.24,42.17c-3.6-6.54,7.19-25.17,27.13-57.53c0.65,0,1.31-0.65,1.31-1.96v-0.33
			c6.54-10.46,13.4-21.25,20.27-31.71h97.73c2.29,0,2.61-2.62,0.65-5.88c-1.63-2.94-5.23-5.56-7.52-5.56h-83.35
			c25.5-38.24,49.36-71.26,49.36-71.58c0.98-1.31-0.33-4.9-2.94-7.52c-2.61-2.94-5.88-3.6-6.86-2.29
			c-0.33,0.33-27.78,38.57-55.24,81.39H508.5c-2.29,0-2.61,2.62-0.65,5.56c1.63,3.27,5.23,5.88,7.52,5.88
			c0,0,83.68-3.27,83.02,21.57c0,0-2.29,3.6-1.96,3.6c-7.7,12.75-14.59,25.05-20,35.97c-8.49,8.58-19.59,16.8-29.36,21.56
			c-24.51,11.77,0-22.88,4.25-28.11c1.63-1.31,2.29-2.29,2.29-2.29c1.31-1.31,0-4.9-2.62-7.52c-2.61-2.94-5.88-3.92-7.19-2.62
			l-0.98,1.31C525.17,311.26,500,327.27,496.08,324c-2.29-1.96-0.33-21.57,24.51-50.01c0.98-1.63,0-4.9-2.62-7.85
			c-2.61-2.61-5.88-3.92-7.19-2.61c-8.5,9.15-19.28,23.21-25.17,36.28c-0.69,1.52-1.28,2.97-1.84,4.39
			c-20.86,20.13-65.76,54.67-80.86,62.62c-3.27,1.63-17.32,6.86-20.27,2.61c-4.58-9.81,12.42-47.4,36.28-88.91
			c0.65,0.33,0.98,0,1.31,0c0.33-0.33,87.6-66.68,108.52-108.52c5.88-11.11,7.19-18.96,5.88-23.86c-1.63-5.23-5.56-8.83-11.11-10.46
			c-3.27-1.31-6.86-0.98-10.46,0c-10.13,2.94-23.86,13.08-34.32,28.11c-2.94,0.65-128.78,180.1-109.5,207.23
			c8.17,13.08,27.78,7.19,39.55,0.98c12.91-6.45,47.63-33.21,71.06-54.07c-1.1,20.48,20.88,19.28,46.61-2.81
			c1.96,14.06,16.34,16.67,27.78,11.11c4.68-2.22,9.27-5.63,13.65-9.6c-3.32,9.2-4.45,16.16-2.54,19.73
			c16.02,29.42,90.21-43.8,90.54-44.13c1.31-0.98,3.27-2.62,0.65-5.56C653.95,285.76,651.99,286.41,650.68,287.4z M570.93,236.4
			l40.86,1.63c-3.27,5.23-6.54,10.46-9.81,15.69C596.75,246.86,580.74,240.33,570.93,236.4z M487.9,172.66
			c10.46-14.71,23.53-24.51,33.01-27.46c1.63-0.33,3.27-0.65,4.25-0.65c0.98,4.25-0.65,11.11-5.56,20.92
			c-14.06,27.78-57.53,66.35-84.66,88.91C461.43,211.24,487.9,172.66,487.9,172.66z"/>
		
			<linearGradient id="SVGID_00000071561699307987432720000015833612362631736466_" gradientUnits="userSpaceOnUse" x1="89.9403" y1="293.4283" x2="440.3594" y2="293.4283">
			<stop  offset="5.327789e-09" style="stop-color:#FF0000"/>
			<stop  offset="1" style="stop-color:#120007"/>
		</linearGradient>
		<path style="fill:url(#SVGID_00000071561699307987432720000015833612362631736466_);" d="M430.08,127.05
			c-8.67-8.08-19.25-12.02-30.73-13.93c-19.66-3.28-39.11-0.72-58.22,3.39c-67.08,14.45-127.18,43.75-180.49,86.88
			c-8.26,6.68-16,14.19-21.11,23.73c-7.86,14.68-1.3,27.77,15.14,30.62c6.94,1.2,13.94,1.75,20.99,2.01
			c24.54,0.89,49.18-0.05,73.58,3.66c21.99,3.34,43.12,9.32,61.94,21.66c14.41,9.45,24.94,21.35,29.26,36.96c0.01,0,0.02,0,0.03,0
			c0,0,0.27,0.61,0.64,1.7c2.55,12.74-0.15,29.58-19.58,47.6c-0.8,0.74-1.6,1.47-2.42,2.18c-36.75,31.98-77.97,56.39-123.93,72.59
			c-19.36,6.82-38.9,13.19-59.67,14.26c-9.88,0.51-19.59-0.07-28.41-5.19c-7.69-4.46-10.25-10.61-7.93-19.12
			c0.84-3.08,1.94-6.15,3.34-9.01c7.85-16.02,18.93-29.59,31.96-41.66c3.69-3.41,7.36-6.84,11.02-10.29
			c0.88-0.83,1.36-1.92,0.65-3.01c-0.89-1.38-1.99-0.35-2.94,0.05c-0.63,0.26-1.18,0.73-1.75,1.12c-12.07,8.26-22.83,18-31.95,29.43
			c-7.58,9.5-15.12,19.12-18.31,31.21c-3.13,11.88-0.56,22.13,9.17,30.12c8.17,6.72,17.81,9.65,28.15,10.72
			c17.7,1.84,34.89-1.5,51.69-6.22c58.98-16.56,110.92-45.97,156.05-87.33c0.46-0.42,0.91-0.86,1.37-1.29
			c4.63-3.87,8.66-8.46,11.9-13.59c1.59-2.35,3.03-4.81,4.23-7.43c0.86-1.88,1.45-3.71,1.83-5.49c1.47-4.52,2.4-9.29,2.69-14.21
			c0.47-7.98-0.14-15.68-1.95-23.11c-1.43-5.87-3.61-11.56-6.59-17.09c-0.01-0.02-0.02-0.04-0.03-0.07c-3.22-6.1-6.82-11-9.95-14.68
			c-0.32-0.24-0.64-0.51-0.96-0.86c-15.76-17.65-36.07-27.58-58.35-34.03c-22.44-6.5-45.47-8.37-68.72-8.37
			c-17.06,0-34.13,0.11-51.12-1.83c-1.7-0.19-3.91-0.02-4.6-1.71c-0.81-1.97,1.14-3.43,2.33-4.79c6.33-7.19,13.35-13.66,20.94-19.49
			c43.29-33.22,91.06-57.67,143.57-72.62c22.12-6.3,44.4-12.06,67.7-11.83c11.08,0.11,21.89,1.43,31.41,7.76
			c8.29,5.52,10.73,12.57,7.54,21.92c-1.16,3.39-2.59,6.74-4.35,9.85c-9.88,17.37-23.21,31.78-38.61,44.38
			c-4.36,3.56-8.7,7.15-13.03,10.75c-1.04,0.86-1.65,2.05-0.94,3.32c0.9,1.6,2.19,0.53,3.29,0.15c0.72-0.25,1.37-0.73,2.04-1.13
			c14.07-8.4,26.77-18.55,37.75-30.7c9.12-10.1,18.22-20.34,22.62-33.63C442.58,148.29,440.41,136.66,430.08,127.05z"/>
	</g>
	<g>
		<g>
			
				<linearGradient id="SVGID_00000014603017715963758330000006793788393146645666_" gradientUnits="userSpaceOnUse" x1="735.6478" y1="214.7365" x2="764.4433" y2="214.7365">
				<stop  offset="5.327789e-09" style="stop-color:#FF0000"/>
				<stop  offset="1" style="stop-color:#120007"/>
			</linearGradient>
			<path style="fill-rule:evenodd;clip-rule:evenodd;fill:url(#SVGID_00000014603017715963758330000006793788393146645666_);" d="
				M735.71,172.66c-0.68,10.26,4.62,53.03,10.09,65.17c5.47,12.14,18.64,18.98,18.64,18.98s-14.37-9.92-16.76-24.97
				C745.29,216.79,735.71,172.66,735.71,172.66L735.71,172.66z"/>
			
				<linearGradient id="SVGID_00000179642700499778004510000011489722572015283116_" gradientUnits="userSpaceOnUse" x1="845.876" y1="280.428" x2="900.0597" y2="280.428">
				<stop  offset="5.327789e-09" style="stop-color:#FF0000"/>
				<stop  offset="1" style="stop-color:#120007"/>
			</linearGradient>
			<path style="fill-rule:evenodd;clip-rule:evenodd;fill:url(#SVGID_00000179642700499778004510000011489722572015283116_);" d="
				M845.88,183.96c16.08,59.52,42.08,71.16,50.63,114.26c8.55,43.1-1.03,78.68-1.03,78.68c9.58-87.58-21.99-113.61-32.41-132.79
				C850.84,221.59,845.88,183.96,845.88,183.96L845.88,183.96z"/>
			
				<linearGradient id="SVGID_00000063596618381775595240000005956034353185520532_" gradientUnits="userSpaceOnUse" x1="759.8452" y1="330.9834" x2="836.4749" y2="330.9834">
				<stop  offset="5.327789e-09" style="stop-color:#FF0000"/>
				<stop  offset="1" style="stop-color:#120007"/>
			</linearGradient>
			<path style="fill-rule:evenodd;clip-rule:evenodd;fill:url(#SVGID_00000063596618381775595240000005956034353185520532_);" d="
				M782.08,303.61c-2.4,24.97,16.76,42.93,16.76,42.93c-14.71,14.54-39,6.84-39,6.84c25.32,13.85,46.18-5.64,46.18-5.64
				c12.66,6.5,30.45,3.42,30.45,3.42C788.92,350.48,782.08,303.61,782.08,303.61L782.08,303.61z"/>
			
				<linearGradient id="SVGID_00000067233515550282256150000009793628075921682352_" gradientUnits="userSpaceOnUse" x1="816.2835" y1="390.4087" x2="842.2827" y2="390.4087">
				<stop  offset="5.327789e-09" style="stop-color:#FF0000"/>
				<stop  offset="1" style="stop-color:#120007"/>
			</linearGradient>
			<path style="fill-rule:evenodd;clip-rule:evenodd;fill:url(#SVGID_00000067233515550282256150000009793628075921682352_);" d="
				M816.28,358.08c0,0,24.29,29.76,26,64.66c0,0-6.33-24.63-13.68-35.41c0,0-2.74,17.45-9.06,29.59c0,0,6.84-19.33,4.45-32.67
				C821.59,370.91,820.05,377.41,816.28,358.08L816.28,358.08z"/>
			
				<linearGradient id="SVGID_00000159464255115225142000000004826218686744079764_" gradientUnits="userSpaceOnUse" x1="741.2596" y1="349.3538" x2="755.5576" y2="349.3538">
				<stop  offset="5.327789e-09" style="stop-color:#FF0000"/>
				<stop  offset="1" style="stop-color:#120007"/>
			</linearGradient>
			<path style="fill-rule:evenodd;clip-rule:evenodd;fill:url(#SVGID_00000159464255115225142000000004826218686744079764_);" d="
				M752.82,284.7c-24.97,40.02-1.71,67.05-1.71,67.05s-1.37,9.92-1.03,24.97c0.34,15.05,3.76,37.29,3.76,37.29
				c-1.71-12.32,1.71-64.31,1.71-64.31C734.01,319.93,752.82,284.7,752.82,284.7L752.82,284.7z"/>
			
				<linearGradient id="SVGID_00000034774316459774250500000002827192988285097903_" gradientUnits="userSpaceOnUse" x1="763.4236" y1="121.307" x2="872.2104" y2="121.307">
				<stop  offset="5.327789e-09" style="stop-color:#FF0000"/>
				<stop  offset="1" style="stop-color:#120007"/>
			</linearGradient>
			<path style="fill-rule:evenodd;clip-rule:evenodd;fill:url(#SVGID_00000034774316459774250500000002827192988285097903_);" d="
				M763.42,112.67c9.71-11.67,20.95-10.48,20.95-10.48c-3.93-2.22-7.1-9.36-7.1-9.36c4.11,5.13,12.14,9.41,12.14,9.41
				c11.97,2.39,20.18,7.87,41.22,22.92c21.04,15.05,41.56,24.63,41.56,24.63c-24.29-3.42-63.97-40.03-80.73-43.45
				C774.71,102.92,763.42,112.67,763.42,112.67L763.42,112.67z"/>
			
				<linearGradient id="SVGID_00000016789340593394337180000009417541267407381690_" gradientUnits="userSpaceOnUse" x1="788.7513" y1="153.5464" x2="895.2034" y2="153.5464">
				<stop  offset="5.327789e-09" style="stop-color:#FF0000"/>
				<stop  offset="1" style="stop-color:#120007"/>
			</linearGradient>
			<path style="fill-rule:evenodd;clip-rule:evenodd;fill:url(#SVGID_00000016789340593394337180000009417541267407381690_);" d="
				M788.75,159.58c30.1,3.93,61.05,24.04,85.16,21.99c24.12-2.05,23.62-15.32,18.32-27.8c-5.3-12.49-19.84-28.39-19.84-28.39
				s26.17,33.53,17.96,45.5s-52.94-1.61-69.19-7.77C804.92,156.95,788.75,159.58,788.75,159.58L788.75,159.58z"/>
			
				<linearGradient id="SVGID_00000015332368815420164510000009290905503915789221_" gradientUnits="userSpaceOnUse" x1="729.2237" y1="167.8759" x2="788.391" y2="167.8759">
				<stop  offset="5.327789e-09" style="stop-color:#FF0000"/>
				<stop  offset="1" style="stop-color:#120007"/>
			</linearGradient>
			<path style="fill-rule:evenodd;clip-rule:evenodd;fill:url(#SVGID_00000015332368815420164510000009290905503915789221_);" d="
				M788.39,242.28c0,0-6.33-25.14-15.22-29.93c0,0-3.76,17.96,2.91,27.2c0,0-7.7-7.7-6.33-31.65
				c-12.46-17.11-37.71-35.24-40.22-57.11c-3.21-27.94,19.98-35.7,14.8-57.31c0,0,5.65,11.29,1.37,19.67
				c-6.26,12.27-14.61,19.93-11.12,36.09C741.53,181.43,786.1,197.97,788.39,242.28L788.39,242.28z"/>
			
				<linearGradient id="SVGID_00000018942199366738652670000000853856460476580490_" gradientUnits="userSpaceOnUse" x1="747.5567" y1="150.5925" x2="777.447" y2="150.5925">
				<stop  offset="5.327789e-09" style="stop-color:#FF0000"/>
				<stop  offset="1" style="stop-color:#120007"/>
			</linearGradient>
			<path style="fill-rule:evenodd;clip-rule:evenodd;fill:url(#SVGID_00000018942199366738652670000000853856460476580490_);" d="
				M752.65,118.09c0,0-5.82,14.03,1.03,31.47c6.84,17.45,23.78,33.53,23.78,33.53s-23.09-20.18-27.54-37.46
				C745.46,128.36,747.86,123.74,752.65,118.09L752.65,118.09z"/>
			
				<linearGradient id="SVGID_00000008829301511979073850000005255580655985880239_" gradientUnits="userSpaceOnUse" x1="756.1763" y1="267.6544" x2="854.0035" y2="267.6544">
				<stop  offset="5.327789e-09" style="stop-color:#FF0000"/>
				<stop  offset="1" style="stop-color:#120007"/>
			</linearGradient>
			<path style="fill-rule:evenodd;clip-rule:evenodd;fill:url(#SVGID_00000008829301511979073850000005255580655985880239_);" d="
				M779.61,262.69c-15.73,3.62-23.43,17.84-23.43,17.84c10.15-5.9,18.65-3.11,21.62-1.77c0.26,10.26,2.5,18.87,2.5,18.87
				c0.97-36.16,38.77-61.61,73.71-56.72l-1.2-3.25C830.78,237.86,787.97,238.9,779.61,262.69L779.61,262.69z"/>
		</g>
	</g>
</g>
</svg>
